<svg width="460" height="102" viewBox="0 0 460 102" fill="none" xmlns="http://www.w3.org/2000/svg">
<g id="Logo Openbank">
<path id="key" d="M459.489 30.09H415.789C410.933 30.09 406.589 33.66 406.078 38.505C405.311 45.135 400.2 48.96 394.067 49.215C387.422 49.215 382.056 43.86 382.056 37.23C382.056 30.6 387.422 25.245 394.067 25.245C398.411 25.245 402.244 27.54 404.289 31.11C404.544 31.365 404.8 31.365 405.056 31.11C406.333 29.58 407.867 28.305 409.656 27.54C409.911 27.54 409.911 27.03 409.911 26.775C406.589 21.675 400.711 18.36 394.067 18.36C383.589 18.36 375.156 26.775 374.9 37.485C374.9 47.94 383.333 56.61 394.067 56.61C403.778 56.355 411.956 49.98 412.978 39.78C413.233 38.505 414.256 37.485 415.789 37.485H453.1V42.585C453.1 45.39 452.333 49.47 448.756 49.47C445.178 49.47 444.411 45.39 444.411 42.585V41.055C444.411 40.8 444.156 40.545 443.9 40.545H437.767C437.511 40.545 437.256 40.8 437.256 41.055V42.33C437.256 45.135 436.489 49.215 432.911 49.215C429.333 49.215 428.567 45.135 428.567 42.33V41.055C428.567 40.8 428.311 40.545 428.056 40.545H421.922C421.667 40.545 421.411 40.8 421.411 41.055V42.33C421.411 49.215 425.244 56.1 432.656 56.1C435.722 56.1 438.533 54.825 440.322 52.53C442.367 54.825 444.922 56.1 447.989 56.1C455.656 56.1 459.233 48.96 459.233 42.33V30.6C460.256 30.345 460 30.09 459.489 30.09Z" fill="#E9004C"/>
<path id="openbank" d="M130.078 36.465C118.322 36.465 110.4 44.88 110.4 57.375C110.4 69.87 118.833 78.285 130.844 78.285C136.722 78.285 142.089 77.01 146.944 72.93C147.2 72.675 147.2 72.42 146.944 72.42L143.111 67.065C142.856 66.81 142.6 66.81 142.344 67.065C139.022 69.615 135.189 70.89 131.356 70.89C123.689 70.89 119.089 65.28 119.089 58.14C119.089 51.255 122.411 44.625 130.078 44.625C135.7 44.625 139.278 48.195 140.044 54.315H123.433C123.178 54.315 122.922 54.57 122.922 54.57C122.667 56.355 122.667 58.395 122.922 60.435C122.922 60.69 123.178 60.69 123.433 60.69H148.222C148.478 60.69 148.733 60.435 148.733 60.18V57.375C148.733 44.88 141.067 36.465 130.078 36.465ZM87.1444 36.465C81.5222 36.465 77.4333 38.76 74.6222 42.33V37.74C74.6222 37.485 74.3667 37.23 74.1111 37.23H66.4444C66.1889 37.23 65.9333 37.485 65.9333 37.74V94.095C65.9333 94.35 66.1889 94.605 66.4444 94.605H74.1111C74.3667 94.605 74.6222 94.35 74.6222 94.095V55.08C74.6222 48.96 80.2444 44.625 86.1222 44.625C93.5333 44.625 98.1333 50.49 98.1333 57.375C98.1333 64.26 93.5333 70.125 86.1222 70.125C83.5667 70.125 81.0111 69.36 79.2222 68.085C78.9667 67.83 78.4556 68.085 78.4556 68.34V75.48C78.4556 75.735 78.7111 75.99 78.9667 76.245C81.2667 77.52 83.8222 78.285 87.1444 78.285C98.1333 78.285 107.078 69.615 107.078 57.375C107.078 45.135 98.1333 36.465 87.1444 36.465ZM174.8 36.465C170.711 36.465 165.856 37.74 162.789 42.33V37.74C162.789 37.485 162.533 37.23 162.278 37.23H154.611C154.356 37.23 154.1 37.485 154.1 37.74V76.5C154.1 76.755 154.356 77.01 154.611 77.01H162.278C162.533 77.01 162.789 76.755 162.789 76.5V55.08C162.789 48.195 167.389 44.625 173.011 44.625C178.889 44.625 182.211 48.45 182.211 55.08V76.755C182.211 77.01 182.467 77.265 182.722 77.265H190.389C190.644 77.265 190.9 77.01 190.9 76.755V52.275C190.9 42.84 184.256 36.465 174.8 36.465ZM32.9667 18.105C32.7111 18.105 32.4556 18.36 32.4556 18.615V26.775C32.4556 27.03 32.7111 27.285 32.9667 27.285C43.4444 28.305 51.1111 36.72 51.1111 48.195C51.1111 60.69 42.4222 69.36 30.6667 69.36C18.9111 69.36 10.2222 60.69 10.2222 48.195C10.2222 36.72 17.6333 28.305 28.3667 27.285C28.6222 27.285 28.8778 27.03 28.8778 26.775V18.615C28.3667 18.36 28.1111 18.105 27.8556 18.105C11.2444 19.38 0 31.62 0 47.94C0 65.28 12.5222 78.03 30.4111 78.03C48.3 78.03 60.8222 65.28 60.8222 47.94C60.8222 31.62 49.3222 19.38 32.9667 18.105ZM367.744 76.245L351.644 56.1L367.489 38.25C367.744 37.995 367.489 37.485 367.233 37.485H357.778C357.522 37.485 357.267 37.485 357.011 37.74L344.233 52.53H340.656V19.635C340.656 19.38 340.4 19.125 340.144 19.125H332.478C332.222 19.125 331.967 19.38 331.967 19.635V76.5C331.967 76.755 332.222 77.01 332.478 77.01H340.144C340.4 77.01 340.656 76.755 340.656 76.5V60.18H344.233L357.267 76.5C357.522 76.755 357.778 76.755 358.033 76.755H367.489C368 77.01 368 76.5 367.744 76.245ZM309.478 36.465C305.389 36.465 300.533 37.74 297.467 42.33V37.74C297.467 37.485 297.211 37.23 296.956 37.23H289.289C289.033 37.23 288.778 37.485 288.778 37.74V76.5C288.778 76.755 289.033 77.01 289.289 77.01H296.956C297.211 77.01 297.467 76.755 297.467 76.5V55.08C297.467 48.195 302.067 44.625 307.689 44.625C313.567 44.625 316.889 48.45 316.889 55.08V76.755C316.889 77.01 317.144 77.265 317.4 77.265H325.067C325.322 77.265 325.578 77.01 325.578 76.755V52.275C325.578 42.84 318.933 36.465 309.478 36.465ZM281.878 37.485H274.211C273.956 37.485 273.7 37.74 273.7 37.995V42.33C270.889 38.76 267.056 36.465 261.178 36.465C250.189 36.465 241.244 45.135 241.244 57.375C241.244 69.615 249.933 78.285 261.178 78.285C264.5 78.285 267.056 77.52 269.356 76.245C269.611 75.99 269.867 75.735 269.867 75.48V68.34C269.867 68.085 269.356 67.83 269.1 68.085C267.311 69.36 264.756 70.125 262.2 70.125C254.789 70.125 250.189 64.26 250.189 57.375C250.189 50.49 254.789 44.625 262.2 44.625C268.078 44.625 273.7 48.96 273.7 55.08V76.5C273.7 76.755 273.956 77.01 274.211 77.01H281.878C282.133 77.01 282.389 76.755 282.389 76.5V37.74C282.389 37.485 282.133 37.485 281.878 37.485ZM218.5 36.465C215.178 36.465 212.622 37.23 210.322 38.505C210.067 38.76 209.811 39.015 209.811 39.27V46.155C209.811 46.41 210.322 46.665 210.578 46.41C212.367 45.135 214.922 44.37 217.478 44.37C224.889 44.37 229.489 50.235 229.489 57.12C229.489 64.005 224.889 69.87 217.478 69.87C211.6 69.87 205.978 65.535 205.978 59.415V19.635C205.978 19.38 205.722 19.125 205.467 19.125H197.8C197.544 19.125 197.289 19.38 197.289 19.635V76.5C197.289 76.755 197.544 77.01 197.8 77.01H205.467C205.722 77.01 205.978 76.755 205.978 76.5V72.165C208.789 75.735 212.622 78.03 218.5 78.03C229.489 78.03 238.433 69.36 238.433 57.12C238.178 45.135 229.489 36.465 218.5 36.465Z" fill="#00263D"/>
</g>
</svg>
